<svg xmlns="http://www.w3.org/2000/svg" width="1396" height="574" viewBox="0 0 369 152" version="1">
<g fill="#003e7f">
  <path d="M49 32l5 4 3 1h1c-18 9-10 6-8 3l3-4 3-9 1-6-1-5c0-2-1-4-3-5-1-2-2-3-4-3l-9-1h-7c-3 0-11 5 7-4l-3 1-5 6a411 411 0 0 0-17 23l-2 8c-2 5-3 11-3 16v5c1 4 5 7 7 10 7 5 15 11 23 15l4 1h9l4-2c2 0-4 3-3 2l4-4 5-4 12-9c4-2 11-7 17-6l4 1 3 4c5 5 6 14 6 21l-1 6a79 79 0 0 1-12 26l-2 3-3 2-3 2c-4 3-10 7-16 8h-2l-2-1c-3-2-4-8-4-11v-7l2-3 2-3 10-5v1l-1 1-3 2-12 7c-3 1-12 6 3-2l-2 1-4 3-13 9c-23 13-6 3-14 7l-1 1 8-5-2 2-2 4 1 4c1 2 2 2 4 2l4-1-9 7-4 1c-3 0-4-1-5-3l-1-5c0-2 0-4 2-5l12-8h2l2-1-7 4 13-9 22-13-7 4 3-2c4-3-5-2 11-6l-1 3-3 3-1 1v6c1 3 1 8 4 10h6l2-1-6 4c-2 1 8-5 5-4l3-3 5-8c3-6 6-11 7-18l1-6c1-7-1-15-5-20l-4-3-3-1h-4c0-2 3-1 4-3s-2 1-4 2l-8 7-9 7-14 8-9 2h-4l-5-2-8-5L9 77c-3-3-8-7-9-11v-4l4-17 2-7 8-14L29 7l11-7h9l9 1 5 4 3 6 1 5-1 6a47 47 0 0 1-6 14l-1 2-10 5-5-1-4-4 9-6z"/>
  <g aria-label="imply Safe" style={{lineHeight: "1.25"}} fontWeight="400" fontSize="71" fontFamily="Blackadder ITC" letterSpacing="0" wordSpacing="0" strokeWidth="0">
    <path d="M125 80l-1 1-1 2v2h-1l-1 2-1 1-1 1-1-2v-2l1-3 1-2 1-1h3l1 1zm-3 27l-1 2h-1v1h-1l-1 1-1 1h-1v1h-3l-3-1-1-1-1-2 1-1 2-3 1-3 1-4 1-1 1-1v-1h-2v1h-2l-1 1h-3v-1l2-1 3-1h1l5-1h1l1 1 1 2-1 1-1 2-1 1-1 3v1l-1 1-1 3-1 1 1 1 2-1 3-2h1zM160 106l-1 2-2 2-1 1-1 1h-3v-1l-1-1-1-1v-1l1-1v-1-3-1l2-3v-2h1-1l-3 2h-2v1h-1v1h-1l-1 2-1 2v3l-1 1v3l-1 1h-1v-1h-1l-1-1v-1-2l1-1v-1l1-1 1-4v-1-2l-3 2-1 1h-1v1h-1v1h-1v1h-1l-1 1v1h-1v3l-1 1-1 1-1 1h-4l-2-2h2v-1l1 1h1v-1l1-1v-1l1-1v-2l1-2h1v-3l-1-1 1-2h-1l-1 1h-2-1l-1 1h-1v-2h1l2-1h4l1-1h1l1-1h2l1 1-1 1 1 2v1l1 1 3-2 1-1 3-1 1-1h1l1 1v2h2l1-1 2-1 1-1h4l1 1v2l-1 2-1 2-1 1v2l-1 4 1 1v-1l3-2h1z" />
    <path d="M190 99v3l-2 3v1l-1 2-1 2h-1l-1 1-4 1h-1l-2-1-1-2h1l1-1 1 1v1h1l2-1 1-2h1l1-1v-3-5h-1v-1h-1l-4 5h-1l-1 1v1h-1l-1 2h-1v3l-1 1v1h-1v1l-1 1-1 3-1 2-1 3-1 1-1 3-2 2-1 2h-1l-1 1-3 1h-5q-3-1-4-4l-1-1v-2l3-2h1l3-1h5-2l-1 1h-1v1l-4 1v1l-1 1 1 2 3 1h1l4-1v-1l1-1 2-3v-2l1-3v-1l1-1v-1h1v-2l1-2 1-1v-4h1v-1l1-2v-1l1-1h-1v-1h1l-1-1h-2-6v-2h5l2-1h2l1-1h1l1-4h5v2l-1 3v1h-1v3l-1 2 2-1 2-2 1-3 3-1q2-2 4-1h1v1h1v4zM221 74h-3l-2 1-2 1-2 2h1v1l-2 2v3l-1 1v2l-1 1v3l-1 2-1 3v2l-1 1-1 1v2h-1v2l-1 1-1 4h-1l-3 2-2 1h-3l-1-2v-1l1-1 1 1 1 1 1-2 2-1v-1l1-4v-3l1-1 2-5 2-5v-2l2-3v-2h1v-2h1v-2l3-3h2l2-1 3-1h2l1 1zM240 94l-1 1v1l-1 1-1 1-1 1-1 1v1l-1 4-1 1-1 1v3h-1v1l-1 1-1 1v1l-1 3-1 1-1 2v1h-1v1h-1l-1 4-1 1v1l-1 1h-2v1l-2 2-1 1v1h-2v1l-2 1h-1l-4 1h-5l-2-1v-2l-1-1v-2h1v-1l1-1h5v3h-4l-1 1h1l1 2 1 1 4-1 1-1 3-1v-1h1l1-1 1-1h1l1-2 2-3 1-3v-1h1v-2h1v-1l1-3-1-1h1v-1h-2l-1-1-2-1h-1v-1h-1l-1-3v-1-2l1-2v-1h1l1-1 1-1v-4l-2 1-1 2-3 1h-2v-1l1-1v1l2-1 1-1 2-2 2-1h5l1 3h-1v3h-1v4h-1v1l-1 1v1l1 2 1 1v1h3l2-2 1-1 1-2 1-2 1-1v-3h1v-1h1v-2l1-1v-1l1-1 2-1h1zM300 71l-1 2-4 3-1-1h-1l-6-1h1v2h1l3 4 1 4 1 1v1l1 1v2l2 3 1 3v2l-1 4h1l-1 2-1 1v2h-1l-3 4-3 1-2 1-4 2h-3l-5-1-5-2v-1l-4-1q-2-2-2-5l1-3 3-5 6-3v-1l1-1h3l2-1 2 1h1v1l2 2v4h-1l-1 1v2l-5 3h-5q-2 0-3-3v-1l1-1 3-1h1v4h3l2-1v-1h-2v-1-4l1-1h1l-1-1-2-1-2 1v1h-1l-1 1-2 2h-1l-1 2h-1l-2 4 1 2 1 3 3 1 5 1h5l3-1 2-2 1-1 1-2 1-3 1-1v-2-2-1-1-1l-3-8h-1v-1l-1-1-1-2-1-2-1-1v-2l-3-3-6 4-8 1-2-1h-3l-1-1-2-1-2-1v-2l2-2 2-2h10v2h-1l-2 2h-1l-1-1v-1h-5l-1 1 1 2 3 2 4 1 6-1 8-3 1-2 1-2h2v-1h1l1-1 3-1h3 3l2 2h1l1 1 1 1v2zm-2-1l-1-1-1-1-3-1h-3l-3 2h-1l-1 2 5 1 2 1h2l2-1 2-2zM328 94h-1v1h-2v2l-1 1v1l-1 3-1 1-2 2v3l-1 1 1 1 3-2 1 1-1 1-3 3h-3l-2-1v-3h-1l-1 2h-2v1l-2 1v-1h-3l-1-1-1-4v-1-3l1-1v-1l3-4 1-1 2-1 2-1v-1h6l1-1h1l1 1h6v1zm-8 1l-1-1h-3l-1 1-1 1-2 3-1 3v1l-1 1v1l-1 1v2l-1 1v1h1l3-1 1-1 1-1 1-1 2-4 1-1 1-2v-2l1-2z" />
    <path d="M363 78v1l-3 2h-1l-1-1v-3l-1-1v-1h-1l-1-1-4 1-2 1-1 2 1 1-1 1-1 1-1 1v3l-1 1-1 4-1 1-1 2h8v-1h2v1l-1 1-1 1h-8v4l-1 1v2l-1 1-1 3-1 3-1 2v3l-1 1h-1v3l-1 1-1 1-1 1v2h-1l-1 3-1 2-2 1-2 2h-1v1l-3 1-1-1-2 1h-2v-1h-1v-1h-1l1-1-1-1v-1l1-2 1-1h1v5l4 1 1-1 1-1h1v-1h1v-1l2-1 1-2v-1l1-2 1-3v-2l1-1v-1l1-1-1-1 2-5v-2l1-1v-1l1-1 1-3 1-4h1-10v-1h1l1-1h5l3-1h1l1-4 1-1v-2l1-4 1-1 1-1v-1l1-3h1l3-1 1-1h1v-1h7v1l2 1 3 3v1zM369 98v3l-2 3h-1-2l-3-1-4-1-1 1-1 1v4l1 2h1l2 1 2-1 2-1 2-2h1v1l-3 4-3 1h-5l-2-1-3-4v-2-3h1v-1l1-2v-2h1v-2l5-4h6l1 1 1 1h1l1 1h1v3zm-4 1v-1-2l-3-2-3 1-1 1v1h-1v3l7 2 1-2z" />
  </g>
</g>
</svg>
